# xmcd
#
# Track frame offsets: 
#        150
#        8980
#        27590
#        46345
#        67762
#        71710
#        87122
#        104850
#        122967
#        137692
#        153927
#        170357
#        189230
#        207395
#
# Disc length: 2887 seconds
#
# Revision: 8
# Processed by: cddbd v1.5.2PL0 Copyright (c) Steve Scherf et al.
# Submitted via: ExactAudioCopyFreeDBPlugin 1.0
#
DISCID=c20b450e
DTITLE=리쌍(LEESSANG) - 2집 재,계발
DYEAR=2003
DGENRE=Hip-Hop
TTITLE0=Street 노가리 II
TTITLE1=Fly High
TTITLE2=SPAIN
TTITLE3=Slow Down
TTITLE4=리쌍부르쓰 [Interlude]
TTITLE5=리쌍부르쓰
TTITLE6=건-Life
TTITLE7=꼬리아
TTITLE8=알콜man
TTITLE9=831
TTITLE10=Still
TTITLE11=아름다운 추억
TTITLE12=인생은 아름다워 (Feat. BMK)
TTITLE13=x2
EXTD=YEAR: 2003
EXTT0=
EXTT1=
EXTT2=
EXTT3=
EXTT4=
EXTT5=
EXTT6=
EXTT7=
EXTT8=
EXTT9=
EXTT10=
EXTT11=
EXTT12=
EXTT13=
PLAYORDER=
